<svg width="13" height="13" viewBox="0 0 13 13" fill="none" xmlns="http://www.w3.org/2000/svg">
<path d="M7.91515 2.50025L10.2632 4.95431L4.30831 11.165L1.95731 8.71097L7.91515 2.50025ZM12.0553 1.90807L10.9995 0.817261C10.8044 0.614102 10.5399 0.5 10.2642 0.5C9.98844 0.5 9.72397 0.614102 9.52881 0.817261L8.52434 1.86283L10.8724 4.31278L12.0444 3.09038C12.1948 2.93407 12.2796 2.72199 12.2804 2.50059C12.2811 2.27918 12.1977 2.06649 12.0484 1.9091L12.0553 1.90807ZM0.72612 12.1602C0.716351 12.2065 0.718018 12.2546 0.730964 12.3C0.74391 12.3455 0.767711 12.3867 0.800132 12.4199C0.832554 12.4531 0.872532 12.4772 0.916314 12.4898C0.960095 12.5025 1.00624 12.5033 1.05043 12.4923L3.67645 11.8292L1.32052 9.37512L0.72612 12.1602Z" fill="#3E74FF"/>
</svg>
