<svg xmlns="http://www.w3.org/2000/svg" xmlns:xlink="http://www.w3.org/1999/xlink" width="60" height="60" viewBox="0 0 60 60">
  <defs>
    <clipPath id="clip-path">
      <rect id="Rectangle_39" data-name="Rectangle 39" width="34" height="34" transform="translate(-0.192 -0.192)" fill="#fff"/>
    </clipPath>
  </defs>
  <g id="Group_374" data-name="Group 374" transform="translate(-163.139 -151.139)">
    <rect id="Rectangle_32" data-name="Rectangle 32" width="60" height="60" rx="12" transform="translate(163.139 151.139)" fill="#ce2323"/>
    <g id="Frame" transform="translate(176.33 164.331)" clip-path="url(#clip-path)">
      <path id="Path_199" data-name="Path 199" d="M11.944,18.417H.807a.7.7,0,0,1-.752-1,12.533,12.533,0,0,1,2.228-4.43A10.59,10.59,0,0,1,5.9,10.152a13.326,13.326,0,0,1,4.494-1.308,14.433,14.433,0,0,1,3.073-.019,13.778,13.778,0,0,1,4.285,1.117,10.667,10.667,0,0,1,4.475,3.593,8.4,8.4,0,0,1,1.026,1.987c.237.651.492,1.294.719,1.945a.892.892,0,0,1,.028.456.469.469,0,0,1-.316.358,2.467,2.467,0,0,1-1.017.135Z" transform="translate(-0.136 1.642)" fill="#fff"/>
      <path id="Path_200" data-name="Path 200" d="M21.43,27.5c-.019-.517-.037-1.005-.051-1.489-.046-1.322-.093-2.648-.139-3.97-.032-.954-.074-1.9-.107-2.857a.318.318,0,0,1,.074-.223,2.118,2.118,0,0,0,.5-2.15,11.784,11.784,0,0,0-2.539-4.756c-.432-.493-.915-.945-1.388-1.4a.5.5,0,0,1-.125-.47H30.069c0,.065.009.14.009.214V26.782c0,.521-.232.749-.743.749L22.581,27.5C22.21,27.5,21.838,27.5,21.43,27.5Z" transform="translate(3.45 1.934)" fill="#fff"/>
      <path id="Path_201" data-name="Path 201" d="M12.014,24.756h10.7a1.306,1.306,0,0,1,1.133.554.981.981,0,0,1-.051,1.163c-.441.558-.873,1.122-1.309,1.68a1.191,1.191,0,0,1-.993.5H2.53a1.157,1.157,0,0,1-.961-.47c-.436-.549-.85-1.121-1.3-1.657A1.047,1.047,0,0,1,.9,24.8a1.677,1.677,0,0,1,.46-.046Q6.687,24.758,12.014,24.756Z" transform="translate(-0.137 4.895)" fill="#fff"/>
      <path id="Path_202" data-name="Path 202" d="M25.987,6.753h4.8c.5,0,.729.219.734.717,0,.963,0,1.922,0,2.885a.639.639,0,0,1-.734.721H17.3a.638.638,0,0,1-.7-.689q-.007-1.466,0-2.932a.642.642,0,0,1,.706-.7H23.62c.093-.493.181-.977.269-1.461.158-.875.3-1.75.473-2.615a1.219,1.219,0,0,1,.761-.9Q27.247.929,29.367.089A1.044,1.044,0,0,1,30.49.265a1.257,1.257,0,0,1,.441,1.27,1.331,1.331,0,0,1-.882,1.024c-1.133.437-2.261.889-3.393,1.331a.253.253,0,0,0-.186.223C26.321,4.989,26.154,5.859,25.987,6.753Z" transform="translate(3.238 -0.137)" fill="#fff"/>
      <path id="Path_203" data-name="Path 203" d="M12.039,21.609H2.082A1.313,1.313,0,0,1,.67,20.51,2.051,2.051,0,0,1,.977,18.7a1.073,1.073,0,0,1,.933-.47c.975,0,1.95,0,2.925,0H22.145A1.284,1.284,0,0,1,23.58,19.3a1.983,1.983,0,0,1-.771,2.164,1.224,1.224,0,0,1-.7.2q-5.035-.007-10.069,0A.16.16,0,0,1,12.039,21.609Z" transform="translate(-0.018 3.57)" fill="#fff"/>
      <path id="Path_204" data-name="Path 204" d="M.648,24.474a2.884,2.884,0,0,1,2.609-2.657,3.329,3.329,0,0,1,2.9.931,4.7,4.7,0,0,1,.325.386,3.193,3.193,0,0,1,2.7-1.354,3.209,3.209,0,0,1,2.693,1.368,3.352,3.352,0,0,1,5.4-.014,3.091,3.091,0,0,1,1.388-1.112A3.4,3.4,0,0,1,22.727,23.2a2.162,2.162,0,0,1,.362,1.266c-.552,0-1.1,0-1.648,0-.042,0-.107-.093-.116-.154a1.337,1.337,0,0,0-1.272-1.084,1.367,1.367,0,0,0-1.388.828c-.046.126-.07.265-.107.4h-2.6a1.317,1.317,0,0,0-.511-.949,1.464,1.464,0,0,0-.933-.289,1.326,1.326,0,0,0-1.332,1.233H10.559A1.2,1.2,0,0,0,9.9,23.427a1.96,1.96,0,0,0-.887-.186,1.249,1.249,0,0,0-1.226,1.205H5.17a1.348,1.348,0,0,0-.664-1.038,1.391,1.391,0,0,0-2.094.912c0,.051-.084.135-.13.135C1.744,24.478,1.2,24.474.648,24.474Z" transform="translate(-0.005 4.288)" fill="#fff"/>
    </g>
  </g>
</svg>
