<svg width="42" height="42" viewBox="0 0 42 42" fill="none" xmlns="http://www.w3.org/2000/svg">
<path d="M33.3929 0H7.85714C3.51776 0 0 3.58172 0 8V34C0 38.4183 3.51776 42 7.85714 42H33.3929C37.7322 42 41.25 38.4183 41.25 34V8C41.25 3.58172 37.7322 0 33.3929 0Z" fill="#38B24D"/>
<path d="M29.6676 11.9978C27.973 10.2386 25.7967 9.04069 23.4229 8.56074C21.0491 8.08078 18.5884 8.34107 16.3622 9.30757C14.136 10.2741 12.2479 11.9018 10.9447 13.9782C9.64147 16.0545 8.9837 18.4828 9.05733 20.9458C9.08654 22.3517 9.36503 23.7407 9.87938 25.0458C10.2985 26.1337 10.8698 27.1542 11.5755 28.0758L10.5836 30.4758C10.4542 30.7777 10.4079 31.1097 10.4497 31.4363C10.4915 31.7629 10.6198 32.0718 10.8208 32.3298C11.0219 32.5878 11.2881 32.7853 11.5909 32.901C11.8938 33.0168 12.2219 33.0464 12.54 32.9868L17.1325 32.1788C19.699 33.0843 22.4907 33.0799 25.0544 32.1664C27.6181 31.2528 29.8033 29.4837 31.2551 27.1464C32.7069 24.809 33.3402 22.0406 33.052 19.2906C32.7638 16.5407 31.5711 13.9706 29.6676 11.9978ZM20.1988 25.4778H17.0559C16.8205 25.4699 16.5974 25.3692 16.4336 25.1968C16.2698 25.0245 16.1783 24.7941 16.1783 24.5543C16.1783 24.3145 16.2698 24.0841 16.4336 23.9118C16.5974 23.7394 16.8205 23.6387 17.0559 23.6308H20.1988C20.439 23.6324 20.6689 23.7302 20.8387 23.9032C21.0086 24.0761 21.1047 24.3102 21.1063 24.5548C21.1077 24.6765 21.0852 24.7973 21.0401 24.91C20.995 25.0227 20.9282 25.1251 20.8436 25.2111C20.7591 25.2971 20.6584 25.365 20.5477 25.4108C20.4369 25.4566 20.3183 25.4794 20.1988 25.4778ZM25.1026 21.7278H17.049C16.8088 21.7262 16.5789 21.6284 16.409 21.4554C16.2392 21.2825 16.1431 21.0484 16.1415 20.8038C16.1399 20.682 16.1623 20.5611 16.2074 20.4483C16.2524 20.3355 16.3192 20.233 16.4038 20.1468C16.4884 20.0607 16.5891 19.9927 16.6999 19.9468C16.8107 19.901 16.9294 19.8782 17.049 19.8798H25.1026C25.338 19.8877 25.5611 19.9884 25.7249 20.1608C25.8887 20.3331 25.9802 20.5635 25.9802 20.8033C25.9802 21.0431 25.8887 21.2735 25.7249 21.4458C25.5611 21.6182 25.338 21.7189 25.1026 21.7268V21.7278ZM25.1026 17.9468H17.049C16.9274 17.9509 16.8062 17.93 16.6927 17.8854C16.5791 17.8408 16.4756 17.7735 16.3881 17.6873C16.3007 17.6012 16.2311 17.498 16.1836 17.3839C16.1361 17.2698 16.1117 17.1472 16.1117 17.0233C16.1117 16.8994 16.1361 16.7768 16.1836 16.6627C16.2311 16.5486 16.3007 16.4454 16.3881 16.3593C16.4756 16.2731 16.5791 16.2057 16.6927 16.1612C16.8062 16.1166 16.9274 16.0957 17.049 16.0998H25.1026C25.3428 16.1014 25.5727 16.1992 25.7426 16.3722C25.9124 16.5451 26.0086 16.7792 26.0101 17.0238C26.0027 17.2661 25.9045 17.4963 25.7358 17.6673C25.5671 17.8384 25.3406 17.9373 25.1026 17.9438V17.9468Z" fill="white"/>
</svg>
