<svg xmlns="http://www.w3.org/2000/svg" width="21.79" height="18.35" viewBox="0 0 21.79 18.35">
  <g id="sun" transform="translate(0 -0.842)">
    <path id="Path_463" data-name="Path 463" d="M8.007,2.124a1.233,1.233,0,1,1,2.464,0V3.405a1.233,1.233,0,1,1-2.464,0ZM2.464,9.173A1.222,1.222,0,0,1,3.7,10.455a1.222,1.222,0,0,1-1.232,1.282H1.232A1.222,1.222,0,0,1,0,10.455,1.222,1.222,0,0,1,1.232,9.173ZM4.848,4.715a1.289,1.289,0,0,1,0,1.812,1.175,1.175,0,0,1-1.742,0l-.872-.906a1.29,1.29,0,0,1,0-1.813,1.176,1.176,0,0,1,1.742,0ZM15.371,6.527a1.175,1.175,0,0,1-1.742,0,1.289,1.289,0,0,1,0-1.812l.871-.906a1.175,1.175,0,0,1,1.742,0,1.289,1.289,0,0,1,0,1.812Z" transform="translate(0 0)" fill="#ffac33"/>
    <path id="Path_464" data-name="Path 464" d="M12.53,18.531A5.161,5.161,0,1,0,7.369,13.37,5.161,5.161,0,0,0,12.53,18.531Z" transform="translate(-3.355 -3.354)" fill="#ffac33"/>
    <path id="Path_465" data-name="Path 465" d="M18.768,16.706a4.543,4.543,0,0,0-1.321.195,3.644,3.644,0,0,0-6.929.307,2.522,2.522,0,0,0-1.506-.5A2.48,2.48,0,0,0,6.5,19.158a2.4,2.4,0,0,0,.189.928,2.837,2.837,0,0,0-.747-.111,2.724,2.724,0,1,0,0,5.447H18.767a4.359,4.359,0,1,0,0-8.716Z" transform="translate(-1.437 -6.23)" fill="#e1e8ed"/>
  </g>
</svg>
